<?xml version="1.0" encoding="iso-8859-1"?>
<!-- Generator: Adobe Illustrator 17.1.0, SVG Export Plug-In . SVG Version: 6.00 Build 0)  -->
<!DOCTYPE svg PUBLIC "-//W3C//DTD SVG 1.1//EN" "http://www.w3.org/Graphics/SVG/1.1/DTD/svg11.dtd">
<svg version="1.1" id="Capa_1" xmlns="http://www.w3.org/2000/svg" xmlns:xlink="http://www.w3.org/1999/xlink" x="0px" y="0px"
	 viewBox="0 0 410.442 410.442" style="enable-background:new 0 0 410.442 410.442;" xml:space="preserve">
<g>
	<path d="M409.655,99.966c-0.525-2.558-2.776-4.395-5.388-4.395h-40.601c-11.651-31.547-42.024-54.101-77.569-54.101
		c-45.579,0-82.66,37.081-82.66,82.659c0,21.231,7.88,41.076,22.271,56.425c-18.668,22.945-46.969,36.521-76.636,36.521
		c-38.027,0-73.089-22.238-89.323-56.656c-0.896-1.899-2.795-3.122-4.896-3.152c-2.128-0.064-4.034,1.137-4.984,3.01
		c-11.68,23.018-17.602,47.856-17.602,73.828c0,20.715,3.816,40.834,11.335,59.886c-16.475,6.28-31.133,16.957-42.423,31.285
		c-1.88,2.387-1.47,5.845,0.916,7.725c1.008,0.795,2.208,1.18,3.4,1.18c1.627,0,3.239-0.719,4.324-2.096
		c16.811-21.336,42.012-33.57,69.147-33.57c0.007,0,0.015,0,0.024,0c26.91,0,51.993,12.087,68.813,33.158
		c0,0,0.001,0.001,0.002,0.002c18.897,23.703,47.118,37.297,77.425,37.297c30.502,0,58.856-13.759,77.793-37.748
		c0.002-0.003,0.004-0.005,0.006-0.008c16.81-21.336,42.011-33.57,69.146-33.57c0.003,0,0.009,0,0.012,0c0,0,0,0,0,0
		c3.037,0,5.5-2.462,5.5-5.499c0.001-3.038-2.462-5.501-5.499-5.501c-0.005,0-0.007,0-0.013,0c-7.759,0-15.376,0.894-22.735,2.614
		c6.338-17.642,9.557-36.146,9.557-55.154c0-19.398-3.365-38.345-9.998-56.371c6.397-7.497,11.33-15.988,14.671-25.08
		c16.975-0.371,29.651-5.523,37.671-15.355C413.959,121.834,409.837,100.852,409.655,99.966z M286.097,52.471
		c39.513,0,71.659,32.146,71.659,71.659c0,18.123-6.785,35.421-19.104,48.707c-13.525,14.586-32.681,22.952-52.555,22.952
		c-18.427,0-35.936-6.98-49.301-19.656c-14.418-13.675-22.359-32.143-22.359-52.003C214.437,84.617,246.584,52.471,286.097,52.471z
		 M294.392,324.406c-0.001,0.001-0.001,0.002-0.001,0.002c-16.838,21.329-42.044,33.563-69.158,33.563
		c-26.94,0-52.026-12.084-68.824-33.154c-0.001-0.001-0.001-0.002-0.001-0.002c-18.922-23.706-47.136-37.301-77.414-37.301
		c-0.009,0-0.017,0-0.027,0c-8.509,0-16.849,1.072-24.863,3.135c-7.192-17.967-10.835-36.97-10.835-56.544
		c0-20.584,3.986-40.402,11.865-59.059c19.708,32.539,55.457,53.029,93.939,53.029c32.709,0,63.932-14.838,84.682-39.968
		c14.743,12.088,33.109,18.682,52.343,18.682c19.98,0,39.329-7.328,54.298-20.349c5.05,15.326,7.605,31.32,7.605,47.664
		c0,20.591-4.04,40.545-11.993,59.331C319.861,299.754,305.496,310.313,294.392,324.406z M392.821,130.346
		c-5.38,6.596-14.087,10.342-25.924,11.168c1.214-5.666,1.859-11.484,1.859-17.384c0-6.025-0.665-11.896-1.896-17.559h32.518
		C399.713,112.3,399.213,122.509,392.821,130.346z"/>
	<path d="M302.948,123.422c10.857,0,19.69-8.833,19.69-19.69c0-10.857-8.833-19.69-19.69-19.69c-10.857,0-19.69,8.833-19.69,19.69
		C283.258,114.589,292.091,123.422,302.948,123.422z M302.948,95.041c4.792,0,8.69,3.899,8.69,8.69c0,4.792-3.898,8.69-8.69,8.69
		c-4.792,0-8.69-3.898-8.69-8.69C294.258,98.94,298.156,95.041,302.948,95.041z"/>
</g>
<g>
</g>
<g>
</g>
<g>
</g>
<g>
</g>
<g>
</g>
<g>
</g>
<g>
</g>
<g>
</g>
<g>
</g>
<g>
</g>
<g>
</g>
<g>
</g>
<g>
</g>
<g>
</g>
<g>
</g>
</svg>
